<svg width="48" height="48" viewBox="0 0 48 48" fill="none" xmlns="http://www.w3.org/2000/svg">
<path fill-rule="evenodd" clip-rule="evenodd" d="M14.6666 3C15.8264 3 16.7666 3.82655 16.7666 4.84615V6.07782C17.186 6.07692 17.6226 6.07692 18.0771 6.07692H29.923C30.3774 6.07692 30.8139 6.07692 31.2333 6.07782V4.84615C31.2333 3.82655 32.1735 3 33.3333 3C34.4931 3 35.4333 3.82655 35.4333 4.84615V6.18563C36.8982 6.29468 38.1932 6.52265 39.3943 7.06066C41.3261 7.92598 42.8967 9.30673 43.881 11.005C44.502 12.0765 44.7599 13.2331 44.8818 14.5444C45 15.8171 45 17.3879 45 19.3315V29.7455C45 31.6891 45 33.2598 44.8818 34.5325C44.7599 35.8438 44.502 37.0004 43.881 38.0719C42.8967 39.7702 41.3261 41.1509 39.3943 42.0163C38.1754 42.5622 36.8599 42.7889 35.3682 42.8961C33.9205 43 32.1338 43 29.923 43H18.077C15.8662 43 14.0795 43 12.6318 42.8961C11.1401 42.7889 9.82456 42.5622 8.6057 42.0163C6.6739 41.1509 5.1033 39.7702 4.119 38.0719C3.49796 37.0004 3.24012 35.8438 3.11824 34.5325C2.99996 33.2598 2.99998 31.689 3 29.7454V19.3315C2.99998 17.3879 2.99996 15.8171 3.11824 14.5444C3.24012 13.2331 3.49796 12.0765 4.119 11.005C5.1033 9.30673 6.6739 7.92598 8.6057 7.06066C9.80677 6.52266 11.1018 6.2947 12.5666 6.18564V4.84615C12.5666 3.82655 13.5068 3 14.6666 3ZM12.5666 9.89471C11.5818 9.98849 10.9794 10.1414 10.5125 10.3505C9.37094 10.8619 8.44286 11.6778 7.86123 12.6813C7.59215 13.1455 7.40494 13.7621 7.30429 14.8451C7.21978 15.7545 7.20373 16.8774 7.2007 18.3846H40.7993C40.7963 16.8774 40.7802 15.7545 40.6957 14.8451C40.5951 13.7621 40.4079 13.1455 40.1388 12.6813C39.5571 11.6778 38.6291 10.8619 37.4875 10.3505C37.0206 10.1414 36.4182 9.98847 35.4333 9.8947V11.4103C35.4333 12.4299 34.4931 13.2564 33.3333 13.2564C32.1735 13.2564 31.2333 12.4299 31.2333 11.4103V9.77029C30.7969 9.7693 30.3314 9.76923 29.8333 9.76923H18.1667C17.6686 9.76923 17.2031 9.7693 16.7666 9.77029V11.4103C16.7666 12.4299 15.8264 13.2564 14.6666 13.2564C13.5068 13.2564 12.5666 12.4299 12.5666 11.4103V9.89471ZM40.8 22.0769H7.2V29.6667C7.2 31.7076 7.20163 33.1272 7.30429 34.2318C7.40494 35.3148 7.59215 35.9314 7.86123 36.3956C8.44286 37.3992 9.37094 38.2151 10.5125 38.7264C11.0406 38.9629 11.7419 39.1275 12.9738 39.216C14.2303 39.3063 15.8451 39.3077 18.1667 39.3077H29.8333C32.1549 39.3077 33.7697 39.3063 35.0262 39.216C36.2581 39.1275 36.9595 38.9629 37.4875 38.7264C38.6291 38.2151 39.5571 37.3992 40.1388 36.3956C40.4079 35.9314 40.5951 35.3148 40.6957 34.2318C40.7984 33.1272 40.8 31.7076 40.8 29.6667V22.0769Z" fill="#F45FFF"/>
<circle cx="32.5" cy="31.5" r="3.5" fill="#F45FFF"/>
</svg>
