<svg width="12" height="18" viewBox="0 0 12 18" fill="none" xmlns="http://www.w3.org/2000/svg">
<path d="M3.86671 15.722C3.3754 17.6717 4.11305 18.0756 5.43266 16.6522L10.9757 10.3763C12.2582 8.83381 11.937 7.59454 10.0901 7.28473L7.41754 6.79703C7.26141 6.76854 7.15828 6.62074 7.1872 6.4669C7.18815 6.46182 7.18925 6.45677 7.19048 6.45175L8.21895 2.27049C8.71163 0.30836 7.89045 -0.0469793 6.65869 1.3435C4.88883 3.30984 3.54385 4.79525 2.62375 5.79973C2.30296 6.14994 1.78661 6.69658 1.07469 7.43963C-0.485573 9.14565 0.335605 10.3829 2.14029 10.6927L4.69443 11.1439C4.85072 11.1715 4.95471 11.3187 4.92669 11.4727C4.92561 11.4786 4.92434 11.4845 4.92288 11.4904L3.86671 15.722Z" fill="white"/>
</svg>
