<svg width="48" height="48" viewBox="0 0 48 48" fill="none" xmlns="http://www.w3.org/2000/svg">
<path fill-rule="evenodd" clip-rule="evenodd" d="M3.42871 23.3143C3.42871 17.5537 3.42871 14.6734 4.54979 12.4732C5.53591 10.5378 7.10943 8.96432 9.04481 7.97819C11.245 6.85712 14.1253 6.85712 19.8859 6.85712H28.1144C33.875 6.85712 36.7552 6.85712 38.9555 7.97819C40.8909 8.96432 42.4644 10.5378 43.4505 12.4732C44.5716 14.6734 44.5716 17.5537 44.5716 23.3143V24.6857C44.5716 30.4462 44.5716 33.3265 43.4505 35.5267C42.4644 37.4621 40.8909 39.0356 38.9555 40.0218C36.7552 41.1428 33.875 41.1428 28.1144 41.1428H19.8859C14.1253 41.1428 11.245 41.1428 9.04481 40.0218C7.10943 39.0356 5.53591 37.4621 4.54979 35.5267C3.42871 33.3265 3.42871 30.4462 3.42871 24.6857V23.3143ZM19.8859 10.2857H28.1144C31.0513 10.2857 33.0477 10.2884 34.5909 10.4144C36.094 10.5372 36.8627 10.7599 37.3989 11.0331C37.5244 11.097 37.6476 11.1647 37.7684 11.2359L28.6064 20.3979C27.5681 21.4362 26.8613 22.1411 26.2711 22.6421C25.6963 23.1301 25.3458 23.3232 25.0596 23.4162C24.371 23.64 23.6293 23.64 22.9407 23.4162C22.6545 23.3232 22.304 23.1301 21.7291 22.6421C21.139 22.1411 20.4322 21.4362 19.3938 20.3979L10.2318 11.2359C10.3526 11.1647 10.4759 11.097 10.6013 11.0331C11.1376 10.7599 11.9063 10.5372 13.4094 10.4144C14.9526 10.2884 16.949 10.2857 19.8859 10.2857ZM7.80747 13.6602C7.73626 13.781 7.66861 13.9043 7.60467 14.0298C7.33144 14.566 7.10884 15.3347 6.98603 16.8378C6.85995 18.381 6.85728 20.3774 6.85728 23.3143V24.6857C6.85728 27.6225 6.85995 29.619 6.98603 31.1621C7.10884 32.6653 7.33144 33.434 7.60467 33.9702C8.26208 35.2604 9.31109 36.3095 10.6013 36.9669C11.1376 37.2401 11.9063 37.4627 13.4094 37.5855C14.9526 37.7116 16.949 37.7143 19.8859 37.7143H28.1144C31.0513 37.7143 33.0477 37.7116 34.5909 37.5855C36.094 37.4627 36.8627 37.2401 37.3989 36.9669C38.6892 36.3095 39.7382 35.2604 40.3956 33.9702C40.6688 33.434 40.8914 32.6653 41.0142 31.1621C41.1403 29.619 41.143 27.6225 41.143 24.6857V23.3143C41.143 20.3774 41.1403 18.381 41.0142 16.8378C40.8914 15.3347 40.6688 14.566 40.3956 14.0298C40.3317 13.9043 40.264 13.781 40.1928 13.6602L30.9807 22.8723C30.005 23.848 29.1996 24.6535 28.49 25.2559C27.753 25.8816 27.0072 26.3884 26.1191 26.677C24.7419 27.1245 23.2584 27.1245 21.8812 26.677C20.9931 26.3884 20.2473 25.8816 19.5102 25.2559C18.8006 24.6534 17.9953 23.8481 17.0195 22.8723L7.80747 13.6602Z" fill="#F45FFF"/>
</svg>
