<svg width="48" height="48" viewBox="0 0 48 48" fill="none" xmlns="http://www.w3.org/2000/svg">
<path d="M28.0733 18.5273C27.3703 17.8244 26.2306 17.8244 25.5277 18.5273C24.8248 19.2303 24.8248 20.37 25.5277 21.0729L26.9277 22.4729C27.6306 23.1758 28.7703 23.1758 29.4733 22.4729C30.1762 21.77 30.1762 20.6303 29.4733 19.9273L28.0733 18.5273Z" fill="#F45FFF"/>
<path fill-rule="evenodd" clip-rule="evenodd" d="M42.069 13.1015C41.4256 12.4529 40.3984 12.3892 39.6798 12.9532C38.3866 13.9681 36.5066 13.8784 35.3146 12.6864C34.1226 11.4944 34.0329 9.61442 35.0478 8.32122C35.6118 7.60256 35.548 6.57536 34.8994 5.93199C33.1756 4.22209 31.8219 2.92761 30.1527 2.38524C28.5861 1.87623 26.8986 1.87623 25.332 2.38524C24.331 2.71048 23.484 3.28351 22.6335 4.00546C21.8119 4.70294 20.8774 5.63754 19.7346 6.78031L6.77366 19.7413C5.63089 20.884 4.69629 21.8186 3.9988 22.6402C3.27685 23.4906 2.70383 24.3377 2.37859 25.3386C1.86958 26.9052 1.86957 28.5927 2.37859 30.1593C2.92121 31.8293 4.21672 33.1837 5.9282 34.909C6.57278 35.5587 7.60234 35.6214 8.32092 35.0545C9.61368 34.0347 11.497 34.1226 12.6904 35.3161C13.8838 36.5095 13.9718 38.3928 12.952 39.6856C12.3851 40.4042 12.4478 41.4338 13.0976 42.0783C14.8211 43.7879 16.1746 45.0821 17.8437 45.6244C19.4103 46.1335 21.0978 46.1335 22.6644 45.6244C23.6654 45.2992 24.5124 44.7262 25.3628 44.0042C26.1844 43.3068 27.119 42.3722 28.2617 41.2294L41.2227 28.2684C42.3655 27.1257 43.3001 26.1911 43.9976 25.3695C44.7195 24.5191 45.2926 23.672 45.6178 22.671C46.1268 21.1045 46.1268 19.4169 45.6178 17.8504C45.0752 16.1806 43.78 14.8264 42.069 13.1015ZM32.769 15.232C34.8573 17.3202 37.9493 17.7896 40.4902 16.6415C41.5992 17.8136 42.0118 18.402 42.194 18.9628C42.4681 19.8064 42.4681 20.715 42.194 21.5586C42.0741 21.9276 41.8305 22.3595 41.2532 23.0396C40.6621 23.7359 39.8329 24.5671 38.6238 25.7761L36.9729 27.427L35.0733 25.5273C34.3704 24.8244 33.2307 24.8244 32.5277 25.5273C31.8248 26.2302 31.8247 27.3699 32.5277 28.0729L34.4273 29.9726L25.7695 38.6305C24.5604 39.8395 23.7292 40.6688 23.033 41.2598C22.3529 41.8372 21.9209 42.0808 21.5519 42.2006C20.7084 42.4747 19.7997 42.4747 18.9562 42.2006C18.3962 42.0187 17.8087 41.6072 16.6399 40.5016C17.7945 37.9591 17.327 34.8615 15.236 32.7705C13.145 30.6795 10.0473 30.212 7.50478 31.3667C6.3968 30.1956 5.98456 29.6075 5.80239 29.0468C5.5283 28.2033 5.5283 27.2947 5.80239 26.4511C5.92228 26.0821 6.16584 25.6502 6.74323 24.97C7.33426 24.2738 8.16351 23.4426 9.37256 22.2335L18.0304 13.5757L19.9277 15.4729C20.6307 16.1759 21.7704 16.1758 22.4733 15.4729C23.1762 14.7699 23.1762 13.6302 22.4732 12.9273L20.576 11.0301L22.2269 9.37921C23.436 8.17016 24.2672 7.34091 24.9634 6.74988C25.6435 6.17249 26.0755 5.92893 26.4445 5.80904C27.288 5.53496 28.1967 5.53496 29.0402 5.80904C29.6007 5.99115 30.1887 6.40324 31.3595 7.51089C30.2114 10.0517 30.6808 13.1437 32.769 15.232Z" fill="#F45FFF"/>
</svg>
