<svg width="22" height="22" viewBox="0 0 22 22" fill="none" xmlns="http://www.w3.org/2000/svg">
<path fill-rule="evenodd" clip-rule="evenodd" d="M1.54648 1.54648C0 3.09295 0 5.58197 0 10.56V11.44C0 16.418 0 18.907 1.54648 20.4535C3.09295 22 5.58197 22 10.56 22H11.44C16.418 22 18.907 22 20.4535 20.4535C22 18.907 22 16.418 22 11.44V10.56C22 5.58197 22 3.09295 20.4535 1.54648C18.907 0 16.418 0 11.44 0H10.56C5.58197 0 3.09295 0 1.54648 1.54648ZM3.79999 7.15C3.91798 12.8728 6.92951 16.31 11.8932 16.31H12.1812V13.05C13.989 13.2332 15.3371 14.5682 15.8875 16.31H18.4939C17.7869 13.7044 15.9535 12.2604 14.8141 11.71C15.9526 11.0293 17.5641 9.38927 17.9436 7.15H15.5722C15.0747 8.97101 13.5945 10.6233 12.1803 10.78V7.15H9.77109V13.5C8.30495 13.1337 6.39237 11.3538 6.314 7.15H3.79999Z" fill="white"/>
</svg>
